<?xml version="1.0"?>
<svg id="Layer_2" data-name="Layer 2" xmlns="http://www.w3.org/2000/svg" viewBox="0 0 446.36 495.36">
  <defs>
    
  </defs>
  <g id="Layer_1-2" data-name="Layer 1">
    <g>
      <path fill="#7118C2" d="M0,156.25v182.86c0,23.16,12.36,44.56,32.41,56.14l158.36,91.43c20.06,11.58,44.77,11.58,64.82,0l158.36-91.43c20.06-11.58,32.41-32.98,32.41-56.14v-182.86c0-23.16-12.36-44.56-32.41-56.14L255.59,8.68c-20.06-11.58-44.77-11.58-64.82,0L32.41,100.11C12.36,111.69,0,133.09,0,156.25Z"></path>
      <path fill="#ffffff" d="M183.11,249.16c1.63.15,3.27.23,4.91.23,6.95,0,13.87-1.38,20.23-4.05,8.43-3.54,15.65-9.14,21.47-16.63,7.1-9.15,11.2-19.99,11.84-31.34.61-10.67-1.8-21.31-6.96-30.77-4.94-9.06-12.14-16.45-20.8-21.37-9.33-5.3-20.21-7.57-31.47-6.57-17.18,1.52-32.01,11.4-40.69,27.11-4.46,8.07-6.99,17.23-7.31,26.49-.34,9.66,1.76,19.21,6.07,27.63,8.5,16.62,24.47,27.56,42.71,29.27ZM153.8,165.54c7.19-9.64,17.43-15.59,28.85-16.76,17.72-1.8,33.61,6.24,42.53,21.51,9.37,16.06,8.52,35.46-2.22,50.65-8.42,11.91-20.84,18.43-34.38,18.43-3.06,0-6.19-.33-9.33-1.02-17.61-3.82-30.69-17.41-34.13-35.47-2.44-12.81.81-26.78,8.69-37.35ZM245.47,119.73c-.68-1.61-.1-4.05.85-5.49.82-1.24,1.75-1.5,2.38-1.5h6.13v-6.55c0-.41.12-1.19.94-1.87,1.3-1.08,3.91-1.48,5.06-1.27,1.33.25,3.72,2.35,3.72,3.98v5.71h5.71c1.27,0,2.38.67,3.05,1.83.59,1.03.71,2.19.71,2.99,0,2.84-1.4,4.9-3.33,4.9h-6.13v5.71c0,2.25-2.49,3.81-4.8,3.97-.15.01-.29.02-.43.02-2.39,0-4.11-1.44-4.44-3.77-.07-.51-.07-1.3-.06-2.67,0-.89.02-2.36-.04-3.27-.58-.03-1.31,0-2.01.02-2.55.11-6.04.25-7.3-2.75ZM270.83,269.37c-9.85-8.58-22.11-13.92-35.45-15.44h-.11s-.11-.01-.11-.01c-11.66.14-23.81-.15-35.55-.44-17.73-.43-36.06-.87-53.59.14-17.11.99-32.03,7.38-43.16,18.49-11.17,11.16-17.53,26.09-18.39,43.2-.42,8.32-.67,21.45,0,31.09.8,11.52,8.45,19.68,19.48,20.8h168.92s.07,0,.07,0c9.93-.78,18.31-9.17,19.09-19.09.92-11.64.9-34.55-1.53-45.53-2.87-13-9.68-24.48-19.69-33.21ZM282.16,345.03c-.14,5.18-1.88,8.56-5.47,10.63-.47.27-2.25,1.15-2.86,1.4h-14.33v-42.06c0-2.13-2.04-3.67-4.86-3.67-1.28,0-2.49.34-3.41.97-1.21.82-1.88,2.08-1.88,3.55v41.21h-123v-42.06c0-2.4-3.41-3.78-4.81-3.81-1.51-.04-2.71.4-3.58,1.3-1.65,1.7-1.49,4.38-1.36,6.75.04.76.08,1.47.05,2.03-.33,6.04-.19,12.09-.05,17.95.12,5.06.24,10.29.06,15.48-.01.34-.08.71-.16,1.1-.07.38-.16.8-.19,1.27h-13.18c-.65-.24-2.62-1.09-2.97-1.29-3.05-1.74-5.16-5.27-5.51-9.23-.76-8.47-.48-22.02-.02-31.05,1.52-29.47,22.5-50.3,52.21-51.87,13.11.5,26.63.21,39.71-.07,14.09-.3,28.65-.61,42.67.07,24.47,1.19,43.76,15.35,50.34,36.96,3.51,11.55,2.95,32.15,2.61,44.45ZM361.41,238.09c-.94,1.46-2.42,2.29-4.07,2.29h-4.44v5.28c0,2.19-3.42,3.94-4.81,3.97-.02,0-.03,0-.05,0-1.29,0-3.3-1.13-4.08-1.89-.52-.51-.78-1.07-.78-1.66v-5.71h-4.86c-1.48,0-2.75-.67-3.59-1.87-.64-.93-1-2.15-1-3.43,0-2.8,1.57-4.84,3.74-4.84h5.71v-6.13c0-1.93,2.06-3.33,4.9-3.33.8,0,1.97.12,2.99.71,1.16.66,1.83,1.77,1.83,3.05v5.71h5.28c1.19,0,3.33,1.99,3.64,2.68.74,1.63.58,3.61-.42,5.17ZM349.56,183.9c3.64-.47,7.4-.96,9.44-1.89,1.84-.84,3.04-2.79,3.06-4.96.02-2.19-1.14-4.13-3.04-5.05-1.86-.9-5.38-1.45-8.77-1.98-1.76-.27-3.43-.53-4.56-.8-17.01-4.04-25.68-12.18-29.91-28.08-.47-1.75-.8-3.7-1.12-5.59-.36-2.15-.74-4.37-1.32-6.38-1.35-4.68-4.55-5.01-7-4.46-1.81.41-3.22,2.03-3.81,3.45-.91,2.19-1.42,5.28-1.95,8.55-.38,2.35-.78,4.77-1.31,6.59-4.02,13.68-12.06,21.47-26.08,25.26-1.71.46-3.98.83-6.39,1.21-3.44.55-6.99,1.12-9.23,2.07-1.97.84-3.22,2.82-3.25,5.16-.03,2.26,1.08,4.17,2.9,5,1.87.86,5.11,1.25,8.24,1.63,1.67.2,3.24.39,4.34.63,16.22,3.45,25.3,11.46,29.46,25.98.56,1.97.96,4.42,1.33,6.79.47,2.97.96,6.03,1.83,8.39.87,2.38,2.99,3.91,5.41,3.91h.03c2.46-.01,4.6-1.58,5.45-3.99.75-2.1,1.15-4.84,1.59-7.73.34-2.29.69-4.66,1.21-6.53,3.99-14.3,13.1-22.91,27.88-26.32,1.39-.32,3.42-.58,5.57-.86ZM331.97,178.19c-11.33,4.84-19.9,14.23-24.12,26.22-3.69-10.26-10.11-18.46-18.46-23.45-2.88-1.72-5.93-2.96-8.98-4.04,12.76-4.46,22.6-14.3,27.45-27.49,2.31,6.36,5.97,12.12,10.75,16.9,4.9,4.9,10.73,8.48,17.07,10.53-1.2.36-2.41.77-3.72,1.33Z"></path>
    </g>
  </g>
</svg>